<svg width="1189" height="259" viewBox="0 0 1189 259" fill="none" xmlns="http://www.w3.org/2000/svg">
<g filter="url(#filter0_d_24_6691)">
<path d="M1139.29 108.5V127H1115.23V189.5H1092.82V127H1068.76V108.5H1139.29Z" fill="#DCC795" stroke="white"/>
<path d="M1066.05 108.5V189.5H1043.33V108.5H1066.05Z" fill="#DCC795" stroke="white"/>
<path d="M973.119 108.5L973.247 108.811L991.713 153.812H991.979L1010.45 108.811L1010.57 108.5H1038.44V189.5H1016.19V143.804L998.718 188.557L998.594 188.875H985.097L984.974 188.556L967.502 143.497V189.5H945.252V108.5H973.119Z" fill="#DCC795" stroke="white"/>
<path d="M875.038 108.5L875.166 108.811L893.633 153.812H893.898L912.365 108.811L912.493 108.5H940.359V189.5H918.109V143.804L900.638 188.557L900.514 188.875H887.017L886.894 188.556L869.422 143.497V189.5H847.172V108.5H875.038Z" fill="#DCC795" stroke="white"/>
<path d="M794.906 108.5V158.375C794.906 160.771 795.434 162.898 796.481 164.769C797.53 166.616 798.975 168.061 800.822 169.11C802.693 170.158 804.821 170.688 807.218 170.688C809.643 170.688 811.769 170.158 813.612 169.112C815.46 168.063 816.906 166.617 817.956 164.769C819.002 162.898 819.531 160.771 819.531 158.375V108.5H842.25V160.25C842.25 166.426 840.769 171.797 837.792 176.343C834.847 180.854 830.736 184.339 825.477 186.797L825.475 186.798C820.215 189.23 814.125 190.438 807.218 190.438C800.26 190.438 794.144 189.23 788.883 186.798L788.881 186.797C783.622 184.339 779.511 180.855 776.565 176.344L776.563 176.341C773.639 171.795 772.187 166.425 772.187 160.25V108.5H794.906Z" fill="#DCC795" stroke="white"/>
<path d="M736.169 107.406C742.682 107.406 748.342 108.497 753.135 110.694C757.924 112.89 761.633 115.995 764.242 120.014L764.486 120.391C766.962 124.303 768.206 128.844 768.231 133.997L768.234 134.5H746.488L746.452 134.04C746.253 131.548 745.326 129.649 743.7 128.29L743.697 128.287C742.107 126.938 739.629 126.219 736.169 126.219C733.965 126.219 732.195 126.488 730.84 127.006L730.835 127.008C729.491 127.506 728.541 128.173 727.938 128.985C727.324 129.811 727.005 130.752 726.981 131.823V131.832L726.98 131.84C726.933 132.723 727.088 133.506 727.434 134.2C727.805 134.868 728.393 135.499 729.223 136.086L729.55 136.297C730.341 136.786 731.325 137.245 732.51 137.67C733.862 138.155 735.479 138.591 737.363 138.979L737.367 138.979L743.93 140.386H743.929C748.385 141.329 752.215 142.578 755.411 144.137C758.603 145.693 761.232 147.534 763.285 149.667L763.663 150.064C765.523 152.069 766.906 154.313 767.809 156.794H767.81C768.796 159.432 769.299 162.303 769.325 165.402V165.409C769.299 170.754 767.961 175.313 765.287 179.057C762.618 182.793 758.81 185.621 753.891 187.552L753.89 187.551C748.999 189.48 743.14 190.438 736.325 190.438C729.324 190.438 723.191 189.402 717.938 187.316H717.937C712.694 185.225 708.601 181.999 705.676 177.638L705.674 177.635C702.768 173.236 701.32 167.638 701.294 160.877L701.292 160.375H722.893L722.918 160.849C723.045 163.228 723.638 165.195 724.673 166.772C725.708 168.35 727.165 169.552 729.062 170.376L729.428 170.526C731.281 171.254 733.472 171.625 736.013 171.625C738.293 171.625 740.171 171.342 741.661 170.796C743.161 170.246 744.26 169.497 744.996 168.571C745.733 167.644 746.111 166.595 746.137 165.406C746.111 164.3 745.749 163.347 745.047 162.528L745.037 162.517C744.356 161.671 743.192 160.878 741.484 160.164L741.479 160.162C739.775 159.425 737.453 158.73 734.499 158.082V158.081L726.532 156.363H726.531C719.392 154.815 713.72 152.221 709.55 148.556L709.547 148.553C705.361 144.823 703.299 139.743 703.325 133.373C703.299 128.201 704.681 123.657 707.481 119.763H707.482C710.301 115.853 714.191 112.818 719.132 110.651H719.133C724.102 108.484 729.785 107.406 736.169 107.406Z" fill="#DCC795" stroke="white"/>
<path d="M629.921 108.5L630.071 108.719L658.219 150.168V108.5H680.938V189.5H662.05L661.901 189.283L633.438 147.896V189.5H610.719V108.5H629.921Z" fill="#DCC795" stroke="white"/>
<path d="M566.664 107.406C573.978 107.406 580.622 108.999 586.586 112.191L587.143 112.493C592.855 115.658 597.412 120.249 600.81 126.253C604.326 132.44 606.07 140.03 606.07 149C606.07 157.97 604.326 165.573 600.811 171.785L600.81 171.786C597.302 177.957 592.561 182.649 586.588 185.847L586.586 185.848C580.622 189.014 573.978 190.594 566.664 190.594C559.298 190.594 552.627 189.001 546.662 185.808L546.66 185.807C540.714 182.583 535.987 177.879 532.479 171.708L532.479 171.706C528.989 165.494 527.258 157.918 527.258 149C527.258 140.031 528.989 132.44 532.479 126.254L532.812 125.677C536.283 119.764 540.901 115.265 546.663 112.191C552.627 108.998 559.298 107.406 566.664 107.406ZM566.664 127.312C563.152 127.312 560.223 128.151 557.848 129.801L557.847 129.802C555.496 131.427 553.69 133.839 552.443 137.07L552.442 137.069C551.221 140.277 550.602 144.249 550.602 149C550.602 153.749 551.221 157.733 552.442 160.967C553.688 164.17 555.494 166.583 557.845 168.235C560.22 169.861 563.151 170.688 566.664 170.688C570.178 170.688 573.094 169.861 575.442 168.237C577.82 166.585 579.626 164.173 580.846 160.971V160.969C582.093 157.735 582.727 153.75 582.727 149C582.727 144.25 582.094 140.279 580.847 137.072L580.845 137.067C579.624 133.838 577.819 131.429 575.444 129.804L575.439 129.8C573.091 128.151 570.176 127.312 566.664 127.312Z" fill="#DCC795" stroke="white"/>
<path d="M522.677 108.5V189.5H499.958V108.5H522.677Z" fill="#DCC795" stroke="white"/>
<path d="M497.185 108.5V127H473.122V189.5H450.716V127H426.654V108.5H497.185Z" fill="#DCC795" stroke="white"/>
<path d="M410.089 108.5L410.202 108.844L436.608 188.844L436.825 189.5H412.325L412.218 189.145L407.702 174.188H382.065L377.55 189.145L377.442 189.5H352.942L353.159 188.844L379.565 108.844L379.678 108.5H410.089ZM387.272 156.938H402.495L394.884 131.726L387.272 156.938Z" fill="#DCC795" stroke="white"/>
<path d="M308.496 108.5L308.602 108.86L324.84 164.688L341.078 108.86L341.184 108.5H366.781L366.565 109.156L340.158 189.156L340.045 189.5H309.635L309.522 189.156L283.115 109.156L282.899 108.5H308.496Z" fill="#DCC795" stroke="white"/>
<path d="M246.74 107.406C254.054 107.406 260.698 108.999 266.662 112.191L267.219 112.493C272.931 115.658 277.488 120.249 280.886 126.253C284.402 132.44 286.146 140.03 286.146 149C286.146 157.97 284.403 165.573 280.887 171.785L280.886 171.786C277.378 177.957 272.637 182.649 266.664 185.847L266.662 185.848C260.698 189.014 254.054 190.594 246.74 190.594C239.374 190.594 232.703 189.001 226.738 185.808L226.736 185.807C220.79 182.583 216.063 177.879 212.556 171.708L212.555 171.706C209.066 165.494 207.334 157.918 207.334 149C207.334 140.031 209.065 132.44 212.555 126.254L212.888 125.677C216.359 119.764 220.977 115.265 226.739 112.191C232.704 108.998 239.374 107.406 246.74 107.406ZM246.74 127.312C243.228 127.313 240.299 128.151 237.924 129.801L237.923 129.802C235.572 131.427 233.766 133.839 232.52 137.07L232.519 137.069C231.297 140.277 230.678 144.249 230.678 149C230.678 153.749 231.297 157.733 232.519 160.967C233.764 164.17 235.57 166.583 237.921 168.235C240.296 169.861 243.227 170.687 246.74 170.688C250.254 170.688 253.17 169.861 255.519 168.237C257.896 166.585 259.702 164.173 260.922 160.971V160.969C262.169 157.735 262.803 153.75 262.803 149C262.803 144.25 262.17 140.279 260.923 137.072L260.921 137.067C259.7 133.838 257.896 131.429 255.521 129.804L255.516 129.8C253.168 128.151 250.252 127.312 246.74 127.312Z" fill="#DCC795" stroke="white"/>
<path d="M151.756 108.5L151.906 108.719L180.054 150.168V108.5H202.773V189.5H183.885L183.736 189.283L155.273 147.896V189.5H132.554V108.5H151.756Z" fill="#DCC795" stroke="white"/>
<path d="M76.6643 108.5L76.8137 108.719L104.962 150.168V108.5H127.681V189.5H108.793L108.644 189.283L80.1809 147.896V189.5H57.4622V108.5H76.6643Z" fill="#DCC795" stroke="white"/>
<path d="M52.5691 108.5V189.5H29.8503V108.5H52.5691Z" fill="#DCC795" stroke="white"/>
</g>
<path opacity="0.63" d="M1069.26 125.5V108H1138.79V125.5H1114.73V188H1093.32V125.5H1069.26Z" fill="url(#paint0_radial_24_6691)"/>
<path opacity="0.63" d="M1065.55 108V188H1043.83V108H1065.55Z" fill="url(#paint1_radial_24_6691)"/>
<path opacity="0.63" d="M945.752 108H972.784L991.377 153.312H992.315L1010.91 108H1037.94V188H1016.69V141.75H1016.07L998.252 187.375H985.44L967.627 141.438H967.002V188H945.752V108Z" fill="url(#paint2_radial_24_6691)"/>
<path opacity="0.63" d="M847.672 108H874.703L893.297 153.312H894.234L912.828 108H939.859V188H918.609V141.75H917.984L900.172 187.375H887.359L869.547 141.438H868.922V188H847.672V108Z" fill="url(#paint3_radial_24_6691)"/>
<path opacity="0.63" d="M820.031 108H841.75V159.25C841.75 165.344 840.291 170.617 837.375 175.07C834.484 179.497 830.447 182.922 825.265 185.344C820.083 187.74 814.067 188.938 807.218 188.938C800.317 188.938 794.276 187.74 789.093 185.344C783.911 182.922 779.875 179.497 776.984 175.07C774.119 170.617 772.687 165.344 772.687 159.25V108H794.406V157.375C794.406 159.849 794.953 162.063 796.046 164.016C797.14 165.943 798.651 167.453 800.578 168.547C802.531 169.641 804.744 170.188 807.218 170.188C809.718 170.188 811.932 169.641 813.859 168.547C815.786 167.453 817.296 165.943 818.39 164.016C819.484 162.063 820.031 159.849 820.031 157.375V108Z" fill="url(#paint4_radial_24_6691)"/>
<path opacity="0.63" d="M746.95 133C746.742 130.396 745.766 128.365 744.021 126.906C742.302 125.448 739.685 124.719 736.169 124.719C733.93 124.719 732.094 124.992 730.661 125.539C729.255 126.06 728.213 126.776 727.536 127.688C726.859 128.599 726.508 129.641 726.482 130.813C726.43 131.776 726.599 132.648 726.99 133.43C727.406 134.185 728.057 134.875 728.943 135.5C729.828 136.099 730.961 136.646 732.341 137.141C733.721 137.635 735.362 138.078 737.263 138.469L743.825 139.875C748.253 140.813 752.042 142.049 755.193 143.586C758.344 145.122 760.922 146.932 762.927 149.016C764.932 151.073 766.404 153.391 767.341 155.969C768.305 158.547 768.799 161.359 768.825 164.406C768.799 169.667 767.484 174.12 764.88 177.766C762.276 181.411 758.552 184.185 753.708 186.086C748.891 187.987 743.096 188.938 736.325 188.938C729.372 188.938 723.305 187.909 718.122 185.852C712.966 183.794 708.956 180.63 706.091 176.359C703.253 172.062 701.82 166.568 701.794 159.875H722.419C722.549 162.323 723.161 164.38 724.255 166.047C725.349 167.714 726.885 168.977 728.865 169.836C730.87 170.695 733.253 171.125 736.013 171.125C738.331 171.125 740.271 170.839 741.833 170.266C743.396 169.693 744.581 168.898 745.388 167.883C746.195 166.867 746.612 165.708 746.638 164.406C746.612 163.182 746.208 162.115 745.427 161.203C744.672 160.266 743.422 159.432 741.677 158.703C739.932 157.948 737.575 157.245 734.607 156.594L726.638 154.875C719.555 153.339 713.969 150.773 709.88 147.18C705.818 143.56 703.799 138.625 703.825 132.375C703.799 127.297 705.154 122.857 707.888 119.055C710.648 115.227 714.463 112.245 719.333 110.109C724.229 107.974 729.841 106.906 736.169 106.906C742.628 106.906 748.213 107.987 752.927 110.148C757.641 112.31 761.273 115.357 763.825 119.289C766.404 123.195 767.706 127.766 767.732 133H746.95Z" fill="url(#paint5_radial_24_6691)"/>
<path opacity="0.63" d="M680.438 108V188H662.313L633.407 145.969H632.938V188H611.219V108H629.657L658.094 149.875H658.719V108H680.438Z" fill="url(#paint6_radial_24_6691)"/>
<path opacity="0.63" d="M605.57 148C605.57 156.906 603.839 164.419 600.375 170.539C596.911 176.633 592.237 181.255 586.352 184.406C580.466 187.531 573.904 189.094 566.664 189.094C559.372 189.094 552.784 187.518 546.898 184.367C541.039 181.19 536.378 176.555 532.914 170.461C529.477 164.341 527.758 156.854 527.758 148C527.758 139.094 529.477 131.594 532.914 125.5C536.378 119.38 541.039 114.758 546.898 111.633C552.784 108.482 559.372 106.906 566.664 106.906C573.904 106.906 580.466 108.482 586.352 111.633C592.237 114.758 596.911 119.38 600.375 125.5C603.839 131.594 605.57 139.094 605.57 148ZM583.227 148C583.227 143.208 582.589 139.172 581.312 135.891C580.063 132.583 578.201 130.083 575.727 128.391C573.279 126.672 570.258 125.812 566.664 125.812C563.07 125.812 560.036 126.672 557.562 128.391C555.115 130.083 553.253 132.583 551.977 135.891C550.727 139.172 550.102 143.208 550.102 148C550.102 152.792 550.727 156.841 551.977 160.148C553.253 163.43 555.115 165.93 557.562 167.648C560.036 169.341 563.07 170.188 566.664 170.188C570.258 170.188 573.279 169.341 575.727 167.648C578.201 165.93 580.063 163.43 581.312 160.148C582.589 156.841 583.227 152.792 583.227 148Z" fill="url(#paint7_radial_24_6691)"/>
<path opacity="0.63" d="M522.177 108V188H500.458V108H522.177Z" fill="url(#paint8_radial_24_6691)"/>
<path opacity="0.63" d="M427.154 125.5V108H496.685V125.5H472.622V188H451.216V125.5H427.154Z" fill="url(#paint9_radial_24_6691)"/>
<path opacity="0.63" d="M377.071 188H353.634L380.04 108H409.727L436.134 188H412.696L395.196 130.031H394.571L377.071 188ZM372.696 156.438H416.759V172.688H372.696V156.438Z" fill="url(#paint10_radial_24_6691)"/>
<path opacity="0.63" d="M308.122 108L324.528 164.406H325.153L341.559 108H366.09L339.684 188H309.997L283.59 108H308.122Z" fill="url(#paint11_radial_24_6691)"/>
<path opacity="0.63" d="M285.646 148C285.646 156.906 283.915 164.419 280.451 170.539C276.988 176.633 272.313 181.255 266.428 184.406C260.542 187.531 253.98 189.094 246.74 189.094C239.449 189.094 232.86 187.518 226.975 184.367C221.115 181.19 216.454 176.555 212.99 170.461C209.553 164.341 207.834 156.854 207.834 148C207.834 139.094 209.553 131.594 212.99 125.5C216.454 119.38 221.115 114.758 226.975 111.633C232.86 108.482 239.449 106.906 246.74 106.906C253.98 106.906 260.542 108.482 266.428 111.633C272.313 114.758 276.988 119.38 280.451 125.5C283.915 131.594 285.646 139.094 285.646 148ZM263.303 148C263.303 143.208 262.665 139.172 261.389 135.891C260.139 132.583 258.277 130.083 255.803 128.391C253.355 126.672 250.334 125.812 246.74 125.812C243.146 125.812 240.113 126.672 237.639 128.391C235.191 130.083 233.329 132.583 232.053 135.891C230.803 139.172 230.178 143.208 230.178 148C230.178 152.792 230.803 156.841 232.053 160.148C233.329 163.43 235.191 165.93 237.639 167.648C240.113 169.341 243.146 170.188 246.74 170.188C250.334 170.188 253.355 169.341 255.803 167.648C258.277 165.93 260.139 163.43 261.389 160.148C262.665 156.841 263.303 152.792 263.303 148Z" fill="url(#paint12_radial_24_6691)"/>
<path opacity="0.63" d="M202.273 108V188H184.148L155.242 145.969H154.773V188H133.054V108H151.492L179.929 149.875H180.554V108H202.273Z" fill="url(#paint13_radial_24_6691)"/>
<path opacity="0.63" d="M127.181 108V188H109.056L80.1497 145.969H79.6809V188H57.9622V108H76.3997L104.837 149.875H105.462V108H127.181Z" fill="url(#paint14_radial_24_6691)"/>
<path opacity="0.63" d="M52.0691 108V188H30.3503V108H52.0691Z" fill="url(#paint15_radial_24_6691)"/>
<path d="M654.095 93.0001V47.9092H662.263V66.998H683.157V47.9092H691.348V93.0001H683.157V73.8453H662.263V93.0001H654.095Z" fill="#FF6974"/>
<path d="M615.524 54.7565V47.9092H651.5V54.7565H637.563V93.0001H629.461V54.7565H615.524Z" fill="#FF6974"/>
<path d="M612.945 47.9092V93.0001H605.679L584.433 62.2863H584.058V93.0001H575.89V47.9092H583.2L604.424 78.645H604.821V47.9092H612.945Z" fill="#FF6974"/>
<path d="M572.508 70.4547C572.508 75.3131 571.598 79.4743 569.778 82.9383C567.972 86.3877 565.506 89.0297 562.38 90.8645C559.268 92.6992 555.738 93.6166 551.79 93.6166C547.841 93.6166 544.304 92.6992 541.178 90.8645C538.066 89.015 535.6 86.3656 533.78 82.9163C531.974 79.4523 531.072 75.2984 531.072 70.4547C531.072 65.5962 531.974 61.4423 533.78 57.993C535.6 54.529 538.066 51.8796 541.178 50.0449C544.304 48.2101 547.841 47.2927 551.79 47.2927C555.738 47.2927 559.268 48.2101 562.38 50.0449C565.506 51.8796 567.972 54.529 569.778 57.993C571.598 61.4423 572.508 65.5962 572.508 70.4547ZM564.296 70.4547C564.296 67.0347 563.76 64.1504 562.688 61.802C561.631 59.4388 560.164 57.6554 558.285 56.4518C556.406 55.2335 554.241 54.6244 551.79 54.6244C549.339 54.6244 547.174 55.2335 545.295 56.4518C543.416 57.6554 541.941 59.4388 540.869 61.802C539.813 64.1504 539.284 67.0347 539.284 70.4547C539.284 73.8746 539.813 76.7662 540.869 79.1294C541.941 81.4779 543.416 83.2612 545.295 84.4795C547.174 85.6831 549.339 86.2849 551.79 86.2849C554.241 86.2849 556.406 85.6831 558.285 84.4795C560.164 83.2612 561.631 81.4779 562.688 79.1294C563.76 76.7662 564.296 73.8746 564.296 70.4547Z" fill="#FF6974"/>
<path d="M480.369 47.9092H490.365L503.751 80.5825H504.28L517.666 47.9092H527.662V93.0001H519.824V62.0221H519.405L506.944 92.868H501.087L488.626 61.9561H488.207V93.0001H480.369V47.9092Z" fill="#FF6974"/>
<path d="M426.934 47.9092H436.159L447.189 67.8566H447.63L458.66 47.9092H467.885L451.483 76.1791V93.0001H443.336V76.1791L426.934 47.9092Z" fill="#FF6974"/>
<path d="M395.788 93.0001V47.9092H412.697C416.161 47.9092 419.067 48.511 421.415 49.7146C423.779 50.9182 425.562 52.6061 426.766 54.7785C427.984 56.9362 428.593 59.4535 428.593 62.3303C428.593 65.2219 427.977 67.7319 426.744 69.8602C425.525 71.9738 423.727 73.6104 421.349 74.77C418.972 75.9149 416.051 76.4873 412.587 76.4873H400.543V69.7061H411.486C413.511 69.7061 415.17 69.4272 416.462 68.8694C417.753 68.297 418.707 67.4677 419.324 66.3815C419.955 65.2806 420.271 63.9303 420.271 62.3303C420.271 60.7304 419.955 59.3654 419.324 58.2352C418.693 57.0903 417.731 56.2243 416.44 55.6372C415.148 55.0354 413.482 54.7345 411.442 54.7345H403.956V93.0001H395.788ZM419.082 72.5683L430.244 93.0001H421.129L410.165 72.5683H419.082Z" fill="#FF6974"/>
<path d="M392.405 70.4547C392.405 75.3131 391.495 79.4743 389.675 82.9383C387.87 86.3877 385.404 89.0297 382.277 90.8645C379.166 92.6992 375.635 93.6166 371.687 93.6166C367.739 93.6166 364.201 92.6992 361.075 90.8645C357.963 89.015 355.497 86.3656 353.677 82.9163C351.872 79.4523 350.969 75.2984 350.969 70.4547C350.969 65.5962 351.872 61.4423 353.677 57.993C355.497 54.529 357.963 51.8796 361.075 50.0449C364.201 48.2101 367.739 47.2927 371.687 47.2927C375.635 47.2927 379.166 48.2101 382.277 50.0449C385.404 51.8796 387.87 54.529 389.675 57.993C391.495 61.4423 392.405 65.5962 392.405 70.4547ZM384.193 70.4547C384.193 67.0347 383.657 64.1504 382.585 61.802C381.529 59.4388 380.061 57.6554 378.182 56.4518C376.303 55.2335 374.138 54.6244 371.687 54.6244C369.236 54.6244 367.071 55.2335 365.192 56.4518C363.313 57.6554 361.838 59.4388 360.767 61.802C359.71 64.1504 359.181 67.0347 359.181 70.4547C359.181 73.8746 359.71 76.7662 360.767 79.1294C361.838 81.4779 363.313 83.2612 365.192 84.4795C367.071 85.6831 369.236 86.2849 371.687 86.2849C374.138 86.2849 376.303 85.6831 378.182 84.4795C380.061 83.2612 381.529 81.4779 382.585 79.1294C383.657 76.7662 384.193 73.8746 384.193 70.4547Z" fill="#FF6974"/>
<path d="M315.541 54.7565V47.9092H351.517V54.7565H337.58V93.0001H329.478V54.7565H315.541Z" fill="#FF6974"/>
<path d="M306.103 60.3048C305.898 58.382 305.032 56.8848 303.505 55.8133C301.994 54.7418 300.027 54.2061 297.605 54.2061C295.902 54.2061 294.442 54.4629 293.224 54.9767C292.005 55.4904 291.073 56.1876 290.427 57.0683C289.782 57.949 289.451 58.9544 289.437 60.0846C289.437 61.024 289.649 61.8387 290.075 62.5285C290.515 63.2184 291.11 63.8055 291.858 64.2899C292.607 64.7596 293.436 65.1559 294.346 65.4788C295.256 65.8017 296.174 66.0733 297.099 66.2934L301.326 67.3503C303.028 67.7466 304.665 68.2823 306.236 68.9575C307.821 69.6327 309.237 70.484 310.485 71.5115C311.747 72.5389 312.745 73.7792 313.479 75.2324C314.213 76.6855 314.58 78.3881 314.58 80.3403C314.58 82.9824 313.905 85.3088 312.554 87.3197C311.204 89.3159 309.252 90.8791 306.698 92.0093C304.159 93.1249 301.084 93.6826 297.473 93.6826C293.965 93.6826 290.919 93.1396 288.336 92.0534C285.767 90.9672 283.756 89.382 282.303 87.2977C280.865 85.2134 280.087 82.6741 279.969 79.6798H288.005C288.123 81.2504 288.607 82.5567 289.459 83.5988C290.31 84.641 291.418 85.4189 292.783 85.9326C294.163 86.4464 295.704 86.7032 297.407 86.7032C299.183 86.7032 300.739 86.439 302.074 85.9106C303.425 85.3675 304.482 84.619 305.245 83.6649C306.008 82.6961 306.397 81.5659 306.412 80.2743C306.397 79.1 306.052 78.1313 305.377 77.368C304.702 76.5901 303.755 75.9442 302.537 75.4305C301.333 74.9021 299.924 74.4324 298.309 74.0214L293.179 72.7004C289.466 71.7463 286.53 70.3005 284.373 68.363C282.23 66.4109 281.158 63.8202 281.158 60.591C281.158 57.9343 281.877 55.6078 283.316 53.6116C284.769 51.6154 286.743 50.0669 289.238 48.966C291.734 47.8505 294.559 47.2927 297.715 47.2927C300.915 47.2927 303.718 47.8505 306.125 48.966C308.547 50.0669 310.448 51.6007 311.828 53.5676C313.208 55.5198 313.92 57.7655 313.964 60.3048H306.103Z" fill="#FF6974"/>
<path d="M277.093 47.9092V93.0001H268.925V47.9092H277.093Z" fill="#FF6974"/>
<path d="M227.128 93.0001V47.9092H235.296V66.998H256.191V47.9092H264.381V93.0001H256.191V73.8453H235.296V93.0001H227.128Z" fill="#FF6974"/>
<path d="M178.47 93.0001V47.9092H186.639V68.6272H187.189L204.781 47.9092H214.754L197.317 68.1428L214.908 93.0001H205.089L191.636 73.6691L186.639 79.5697V93.0001H178.47Z" fill="#FF6974"/>
<path d="M175.33 63.123H167.095C166.861 61.7726 166.428 60.5763 165.797 59.5342C165.165 58.4774 164.38 57.582 163.441 56.8481C162.501 56.1142 161.43 55.5638 160.226 55.1968C159.037 54.8152 157.753 54.6244 156.373 54.6244C153.922 54.6244 151.75 55.2409 149.856 56.4738C147.963 57.6921 146.48 59.4828 145.409 61.846C144.337 64.1945 143.801 67.064 143.801 70.4547C143.801 73.904 144.337 76.8102 145.409 79.1734C146.495 81.5219 147.977 83.2979 149.856 84.5015C151.75 85.6905 153.915 86.2849 156.351 86.2849C157.702 86.2849 158.964 86.1088 160.138 85.7565C161.327 85.3896 162.391 84.8538 163.331 84.1493C164.285 83.4447 165.085 82.5787 165.73 81.5512C166.391 80.5238 166.846 79.3495 167.095 78.0285L175.33 78.0726C175.022 80.2155 174.354 82.2264 173.326 84.1052C172.314 85.984 170.985 87.6426 169.341 89.0811C167.697 90.5048 165.774 91.6204 163.573 92.4277C161.371 93.2203 158.927 93.6166 156.241 93.6166C152.278 93.6166 148.741 92.6992 145.629 90.8645C142.517 89.0297 140.066 86.3803 138.275 82.9163C136.484 79.4523 135.589 75.2984 135.589 70.4547C135.589 65.5962 136.492 61.4423 138.297 57.993C140.103 54.529 142.561 51.8796 145.673 50.0449C148.785 48.2101 152.307 47.2927 156.241 47.2927C158.751 47.2927 161.085 47.645 163.243 48.3495C165.4 49.0541 167.323 50.0889 169.011 51.4539C170.699 52.8043 172.086 54.4629 173.172 56.4298C174.273 58.382 174.992 60.613 175.33 63.123Z" fill="#FF6974"/>
<path d="M104.118 93.0001H95.3997L111.274 47.9092H121.358L137.254 93.0001H128.535L116.492 57.1563H116.14L104.118 93.0001ZM104.405 75.3204H128.183V81.8815H104.405V75.3204Z" fill="#FF6974"/>
<path d="M65.8555 93.0001V47.9092H74.0238V86.1528H93.8832V93.0001H65.8555Z" fill="#FF6974"/>
<path d="M29.4475 93.0001V47.9092H46.7089C49.9674 47.9092 52.6755 48.4229 54.8332 49.4504C57.0055 50.4632 58.6274 51.8502 59.6989 53.6116C60.7851 55.373 61.3282 57.3692 61.3282 59.6002C61.3282 61.435 60.9759 63.0055 60.2714 64.3119C59.5668 65.6035 58.6201 66.653 57.4312 67.4603C56.2423 68.2676 54.9139 68.8474 53.4461 69.1997V69.64C55.046 69.7281 56.5798 70.2198 58.0477 71.1151C59.5301 71.9958 60.7411 73.2435 61.6805 74.858C62.6199 76.4726 63.0896 78.4248 63.0896 80.7146C63.0896 83.0484 62.5245 85.1473 61.3942 87.0115C60.264 88.8609 58.5614 90.3213 56.2863 91.3928C54.0112 92.4643 51.149 93.0001 47.6996 93.0001H29.4475ZM37.6158 86.1748H46.4006C49.3656 86.1748 51.5013 85.6097 52.8076 84.4795C54.1286 83.3346 54.7891 81.8668 54.7891 80.0761C54.7891 78.7404 54.4589 77.5368 53.7984 76.4653C53.1379 75.3791 52.1985 74.5278 50.9802 73.9113C49.7619 73.2802 48.3088 72.9646 46.6208 72.9646H37.6158V86.1748ZM37.6158 67.086H45.6961C47.1052 67.086 48.3748 66.8292 49.505 66.3154C50.6352 65.787 51.5233 65.0458 52.1691 64.0917C52.8296 63.123 53.1599 61.9781 53.1599 60.657C53.1599 58.9104 52.5434 57.4719 51.3104 56.3417C50.0922 55.2115 48.2794 54.6464 45.8722 54.6464H37.6158V67.086Z" fill="#FF6974"/>
<path d="M241.031 33.0001V3.90918H248.929V26.6365H260.69V33.0001H241.031Z" fill="white"/>
<path d="M219.552 33.0001H211.029L220.632 3.90918H231.427L241.029 33.0001H232.507L226.143 11.9205H225.916L219.552 33.0001ZM217.961 21.5228H233.984V27.4319H217.961V21.5228Z" fill="white"/>
<path d="M203.144 3.90918H211.042V22.5455C211.042 24.7615 210.512 26.6791 209.451 28.2984C208.4 29.9082 206.932 31.1535 205.048 32.0342C203.163 32.9054 200.976 33.341 198.485 33.341C195.976 33.341 193.779 32.9054 191.894 32.0342C190.01 31.1535 188.542 29.9082 187.491 28.2984C186.449 26.6791 185.928 24.7615 185.928 22.5455V3.90918H193.826V21.8637C193.826 22.7633 194.025 23.5683 194.423 24.2785C194.82 24.9793 195.37 25.5285 196.07 25.9262C196.78 26.324 197.585 26.5228 198.485 26.5228C199.394 26.5228 200.199 26.324 200.9 25.9262C201.601 25.5285 202.15 24.9793 202.548 24.2785C202.945 23.5683 203.144 22.7633 203.144 21.8637V3.90918Z" fill="white"/>
<path d="M184.992 3.90918V33.0001H178.401L167.89 17.716H167.72V33.0001H159.822V3.90918H166.526L176.867 19.1365H177.095V3.90918H184.992Z" fill="white"/>
<path d="M158.886 3.90918V33.0001H152.295L141.784 17.716H141.613V33.0001H133.716V3.90918H140.42L150.761 19.1365H150.988V3.90918H158.886Z" fill="white"/>
<path d="M112.237 33.0001H103.714L113.316 3.90918H124.112L133.714 33.0001H125.191L118.828 11.9205H118.6L112.237 33.0001ZM110.646 21.5228H126.668V27.4319H110.646V21.5228Z" fill="white"/>
<path d="M32.6477 28.4546V22.3183L44.3523 3.90918H49.9204V12.091H46.7386L40.4318 22.091V22.3183H57.7045V28.4546H32.6477ZM46.7954 33.0001V26.5796L46.9659 23.9092V3.90918H54.3522V33.0001H46.7954Z" fill="white"/>
<path d="M75.6016 25.2126V7.75806H80.3402V14.5762H86.6129V7.75806H91.3516V25.2126H86.6129V18.3944H80.3402V25.2126H75.6016Z" fill="white"/>
<path d="M58.6477 11.5762V7.75806H73.8182V11.5762H68.5682V25.2126H63.8977V11.5762H58.6477Z" fill="white"/>
<path d="M280.18 245V215.909H292.737C294.896 215.909 296.785 216.335 298.404 217.188C300.023 218.04 301.283 219.238 302.183 220.781C303.082 222.325 303.532 224.129 303.532 226.193C303.532 228.277 303.068 230.08 302.14 231.605C301.221 233.13 299.929 234.304 298.262 235.128C296.605 235.952 294.668 236.364 292.452 236.364H284.952V230.227H290.862C291.79 230.227 292.58 230.066 293.234 229.744C293.897 229.413 294.403 228.944 294.754 228.338C295.113 227.732 295.293 227.017 295.293 226.193C295.293 225.36 295.113 224.65 294.754 224.062C294.403 223.466 293.897 223.011 293.234 222.699C292.58 222.377 291.79 222.216 290.862 222.216H288.077V245H280.18ZM334.612 230.455C334.612 233.693 333.982 236.425 332.722 238.651C331.463 240.866 329.763 242.547 327.623 243.693C325.483 244.83 323.096 245.398 320.464 245.398C317.812 245.398 315.416 244.825 313.276 243.679C311.146 242.524 309.451 240.838 308.191 238.622C306.941 236.397 306.316 233.674 306.316 230.455C306.316 227.216 306.941 224.489 308.191 222.273C309.451 220.047 311.146 218.366 313.276 217.23C315.416 216.084 317.812 215.511 320.464 215.511C323.096 215.511 325.483 216.084 327.623 217.23C329.763 218.366 331.463 220.047 332.722 222.273C333.982 224.489 334.612 227.216 334.612 230.455ZM326.487 230.455C326.487 228.712 326.254 227.244 325.79 226.051C325.336 224.848 324.659 223.939 323.759 223.324C322.869 222.699 321.771 222.386 320.464 222.386C319.157 222.386 318.054 222.699 317.154 223.324C316.264 223.939 315.587 224.848 315.123 226.051C314.668 227.244 314.441 228.712 314.441 230.455C314.441 232.197 314.668 233.67 315.123 234.872C315.587 236.065 316.264 236.974 317.154 237.599C318.054 238.215 319.157 238.523 320.464 238.523C321.771 238.523 322.869 238.215 323.759 237.599C324.659 236.974 325.336 236.065 325.79 234.872C326.254 233.67 326.487 232.197 326.487 230.455ZM343.816 245L335.237 215.909H344.043L348.021 233.807H348.248L352.964 215.909H359.896L364.612 233.864H364.839L368.816 215.909H377.623L369.043 245H361.487L356.543 228.75H356.316L351.373 245H343.816ZM380.18 245V215.909H401.146V222.273H388.077V227.273H400.066V233.636H388.077V238.636H401.089V245H380.18ZM405.062 245V215.909H417.619C419.778 215.909 421.668 216.302 423.287 217.088C424.906 217.874 426.166 219.006 427.065 220.483C427.965 221.96 428.415 223.731 428.415 225.795C428.415 227.879 427.951 229.635 427.023 231.065C426.104 232.495 424.812 233.575 423.145 234.304C421.488 235.033 419.551 235.398 417.335 235.398H409.835V229.261H415.744C416.672 229.261 417.463 229.148 418.116 228.92C418.779 228.684 419.286 228.31 419.636 227.798C419.996 227.287 420.176 226.619 420.176 225.795C420.176 224.962 419.996 224.285 419.636 223.764C419.286 223.234 418.779 222.846 418.116 222.599C417.463 222.344 416.672 222.216 415.744 222.216H412.96V245H405.062ZM422.108 231.648L429.381 245H420.801L413.699 231.648H422.108ZM439.679 215.909V245H431.781V215.909H439.679ZM468.592 215.909V245H462.001L451.49 229.716H451.32V245H443.422V215.909H450.126L460.467 231.136H460.695V215.909H468.592ZM491.22 225.511C491.097 225.009 490.903 224.569 490.638 224.19C490.373 223.802 490.041 223.475 489.643 223.21C489.255 222.936 488.801 222.732 488.28 222.599C487.768 222.457 487.205 222.386 486.589 222.386C485.264 222.386 484.132 222.704 483.195 223.338C482.267 223.973 481.556 224.886 481.064 226.08C480.581 227.273 480.339 228.712 480.339 230.398C480.339 232.102 480.571 233.561 481.036 234.773C481.5 235.985 482.191 236.913 483.109 237.557C484.028 238.201 485.169 238.523 486.533 238.523C487.735 238.523 488.734 238.348 489.53 237.997C490.335 237.647 490.936 237.15 491.334 236.506C491.732 235.862 491.93 235.104 491.93 234.233L493.294 234.375H486.646V228.75H499.544V232.784C499.544 235.436 498.981 237.704 497.854 239.588C496.736 241.463 495.193 242.902 493.223 243.906C491.263 244.901 489.014 245.398 486.476 245.398C483.644 245.398 481.159 244.796 479.018 243.594C476.878 242.391 475.207 240.677 474.004 238.452C472.811 236.226 472.214 233.58 472.214 230.511C472.214 228.106 472.579 225.975 473.308 224.119C474.047 222.263 475.07 220.696 476.376 219.418C477.683 218.13 479.194 217.159 480.908 216.506C482.622 215.843 484.459 215.511 486.419 215.511C488.143 215.511 489.743 215.758 491.22 216.25C492.707 216.733 494.018 217.424 495.155 218.324C496.301 219.214 497.224 220.27 497.925 221.491C498.625 222.713 499.052 224.053 499.203 225.511H491.22ZM522.388 245H511.195V215.909H522.275C525.267 215.909 527.853 216.491 530.031 217.656C532.218 218.812 533.904 220.478 535.087 222.656C536.281 224.825 536.877 227.424 536.877 230.455C536.877 233.485 536.285 236.089 535.102 238.267C533.918 240.436 532.242 242.102 530.073 243.267C527.905 244.422 525.343 245 522.388 245ZM519.093 238.295H522.104C523.544 238.295 524.77 238.063 525.783 237.599C526.806 237.135 527.583 236.335 528.113 235.199C528.653 234.062 528.923 232.481 528.923 230.455C528.923 228.428 528.648 226.847 528.099 225.71C527.559 224.574 526.763 223.774 525.712 223.31C524.671 222.846 523.392 222.614 521.877 222.614H519.093V238.295ZM540.531 245V215.909H561.497V222.273H548.429V227.273H560.418V233.636H548.429V238.636H561.44V245H540.531ZM564.619 222.273V215.909H589.903V222.273H581.153V245H573.369V222.273H564.619ZM592.875 245V215.909H605.432C607.591 215.909 609.48 216.302 611.099 217.088C612.719 217.874 613.978 219.006 614.878 220.483C615.777 221.96 616.227 223.731 616.227 225.795C616.227 227.879 615.763 229.635 614.835 231.065C613.917 232.495 612.624 233.575 610.957 234.304C609.3 235.033 607.364 235.398 605.148 235.398H597.648V229.261H603.557C604.485 229.261 605.276 229.148 605.929 228.92C606.592 228.684 607.098 228.31 607.449 227.798C607.809 227.287 607.989 226.619 607.989 225.795C607.989 224.962 607.809 224.285 607.449 223.764C607.098 223.234 606.592 222.846 605.929 222.599C605.276 222.344 604.485 222.216 603.557 222.216H600.773V245H592.875ZM609.92 231.648L617.193 245H608.614L601.511 231.648H609.92ZM647.776 230.455C647.776 233.693 647.146 236.425 645.886 238.651C644.627 240.866 642.927 242.547 640.787 243.693C638.647 244.83 636.26 245.398 633.628 245.398C630.976 245.398 628.58 244.825 626.44 243.679C624.31 242.524 622.615 240.838 621.355 238.622C620.105 236.397 619.48 233.674 619.48 230.455C619.48 227.216 620.105 224.489 621.355 222.273C622.615 220.047 624.31 218.366 626.44 217.23C628.58 216.084 630.976 215.511 633.628 215.511C636.26 215.511 638.647 216.084 640.787 217.23C642.927 218.366 644.627 220.047 645.886 222.273C647.146 224.489 647.776 227.216 647.776 230.455ZM639.651 230.455C639.651 228.712 639.419 227.244 638.955 226.051C638.5 224.848 637.823 223.939 636.923 223.324C636.033 222.699 634.935 222.386 633.628 222.386C632.321 222.386 631.218 222.699 630.318 223.324C629.428 223.939 628.751 224.848 628.287 226.051C627.832 227.244 627.605 228.712 627.605 230.455C627.605 232.197 627.832 233.67 628.287 234.872C628.751 236.065 629.428 236.974 630.318 237.599C631.218 238.215 632.321 238.523 633.628 238.523C634.935 238.523 636.033 238.215 636.923 237.599C637.823 236.974 638.5 236.065 638.955 234.872C639.419 233.67 639.651 232.197 639.651 230.455ZM659.327 215.909V245H651.43V215.909H659.327ZM662.275 222.273V215.909H687.559V222.273H678.809V245H671.025V222.273H662.275ZM697.122 215.909V219.318C697.122 220.246 696.933 221.174 696.554 222.102C696.185 223.021 695.711 223.878 695.134 224.673C694.565 225.459 693.978 226.117 693.372 226.648L690.134 225C690.531 224.318 690.886 223.527 691.199 222.628C691.511 221.728 691.668 220.625 691.668 219.318V215.909H697.122ZM716.487 225C716.411 224.053 716.056 223.314 715.421 222.784C714.796 222.254 713.844 221.989 712.566 221.989C711.752 221.989 711.084 222.088 710.563 222.287C710.052 222.476 709.673 222.737 709.427 223.068C709.181 223.4 709.053 223.778 709.043 224.205C709.024 224.555 709.086 224.872 709.228 225.156C709.379 225.431 709.616 225.682 709.938 225.909C710.26 226.127 710.672 226.326 711.174 226.506C711.676 226.686 712.272 226.847 712.964 226.989L715.35 227.5C716.96 227.841 718.338 228.291 719.484 228.849C720.629 229.408 721.567 230.066 722.296 230.824C723.025 231.572 723.56 232.415 723.901 233.352C724.252 234.29 724.432 235.312 724.441 236.42C724.432 238.333 723.953 239.953 723.006 241.278C722.059 242.604 720.705 243.613 718.944 244.304C717.192 244.995 715.085 245.341 712.623 245.341C710.094 245.341 707.888 244.967 706.004 244.219C704.129 243.471 702.67 242.32 701.629 240.767C700.596 239.205 700.076 237.206 700.066 234.773H707.566C707.613 235.663 707.836 236.411 708.234 237.017C708.631 237.623 709.19 238.082 709.91 238.395C710.639 238.707 711.505 238.864 712.509 238.864C713.352 238.864 714.058 238.759 714.626 238.551C715.194 238.343 715.625 238.054 715.918 237.685C716.212 237.315 716.363 236.894 716.373 236.42C716.363 235.975 716.217 235.587 715.933 235.256C715.658 234.915 715.203 234.612 714.569 234.347C713.934 234.072 713.077 233.816 711.998 233.58L709.1 232.955C706.524 232.396 704.493 231.463 703.006 230.156C701.529 228.84 700.795 227.045 700.805 224.773C700.795 222.926 701.288 221.312 702.282 219.929C703.286 218.537 704.673 217.453 706.444 216.676C708.224 215.9 710.265 215.511 712.566 215.511C714.915 215.511 716.946 215.904 718.66 216.69C720.374 217.476 721.695 218.584 722.623 220.014C723.56 221.435 724.034 223.097 724.043 225H716.487ZM735.414 245V215.909H755.869V222.273H743.312V227.273H754.619V233.636H743.312V245H735.414ZM775.989 215.909H783.887V234.545C783.887 236.761 783.357 238.679 782.296 240.298C781.245 241.908 779.777 243.153 777.893 244.034C776.008 244.905 773.821 245.341 771.33 245.341C768.821 245.341 766.624 244.905 764.739 244.034C762.855 243.153 761.387 241.908 760.336 240.298C759.294 238.679 758.773 236.761 758.773 234.545V215.909H766.671V233.864C766.671 234.763 766.87 235.568 767.268 236.278C767.665 236.979 768.215 237.528 768.915 237.926C769.626 238.324 770.431 238.523 771.33 238.523C772.239 238.523 773.044 238.324 773.745 237.926C774.446 237.528 774.995 236.979 775.393 236.278C775.79 235.568 775.989 234.763 775.989 233.864V215.909ZM786.845 222.273V215.909H812.129V222.273H803.379V245H795.595V222.273H786.845ZM832.317 215.909H840.215V234.545C840.215 236.761 839.685 238.679 838.624 240.298C837.573 241.908 836.105 243.153 834.221 244.034C832.336 244.905 830.149 245.341 827.658 245.341C825.149 245.341 822.952 244.905 821.067 244.034C819.183 243.153 817.715 241.908 816.664 240.298C815.622 238.679 815.102 236.761 815.102 234.545V215.909H822.999V233.864C822.999 234.763 823.198 235.568 823.596 236.278C823.994 236.979 824.543 237.528 825.244 237.926C825.954 238.324 826.759 238.523 827.658 238.523C828.567 238.523 829.372 238.324 830.073 237.926C830.774 237.528 831.323 236.979 831.721 236.278C832.119 235.568 832.317 234.763 832.317 233.864V215.909ZM843.969 245V215.909H856.526C858.685 215.909 860.574 216.302 862.193 217.088C863.813 217.874 865.072 219.006 865.972 220.483C866.871 221.96 867.321 223.731 867.321 225.795C867.321 227.879 866.857 229.635 865.929 231.065C865.01 232.495 863.718 233.575 862.051 234.304C860.394 235.033 858.457 235.398 856.241 235.398H848.741V229.261H854.651C855.579 229.261 856.369 229.148 857.023 228.92C857.686 228.684 858.192 228.31 858.543 227.798C858.902 227.287 859.082 226.619 859.082 225.795C859.082 224.962 858.902 224.285 858.543 223.764C858.192 223.234 857.686 222.846 857.023 222.599C856.369 222.344 855.579 222.216 854.651 222.216H851.866V245H843.969ZM861.014 231.648L868.287 245H859.707L852.605 231.648H861.014ZM870.688 245V215.909H891.653V222.273H878.585V227.273H890.574V233.636H878.585V238.636H891.597V245H870.688Z" fill="white"/>
<defs>
<filter id="filter0_d_24_6691" x="22.4503" y="100.006" width="1124.24" height="97.9875" filterUnits="userSpaceOnUse" color-interpolation-filters="sRGB">
<feFlood flood-opacity="0" result="BackgroundImageFix"/>
<feColorMatrix in="SourceAlpha" type="matrix" values="0 0 0 0 0 0 0 0 0 0 0 0 0 0 0 0 0 0 127 0" result="hardAlpha"/>
<feOffset/>
<feGaussianBlur stdDeviation="3.45"/>
<feComposite in2="hardAlpha" operator="out"/>
<feColorMatrix type="matrix" values="0 0 0 0 0.278431 0 0 0 0 0.317647 0 0 0 0 0.729412 0 0 0 0.68 0"/>
<feBlend mode="normal" in2="BackgroundImageFix" result="effect1_dropShadow_24_6691"/>
<feBlend mode="normal" in="SourceGraphic" in2="effect1_dropShadow_24_6691" result="shape"/>
</filter>
<radialGradient id="paint0_radial_24_6691" cx="0" cy="0" r="1" gradientUnits="userSpaceOnUse" gradientTransform="translate(583.5 128) rotate(128.035) scale(580.22 348.408)">
<stop stop-color="#DCC795"/>
<stop offset="0.634631" stop-color="white"/>
<stop offset="0.995213" stop-color="#DCC795"/>
</radialGradient>
<radialGradient id="paint1_radial_24_6691" cx="0" cy="0" r="1" gradientUnits="userSpaceOnUse" gradientTransform="translate(583.5 128) rotate(128.035) scale(580.22 348.408)">
<stop stop-color="#DCC795"/>
<stop offset="0.634631" stop-color="white"/>
<stop offset="0.995213" stop-color="#DCC795"/>
</radialGradient>
<radialGradient id="paint2_radial_24_6691" cx="0" cy="0" r="1" gradientUnits="userSpaceOnUse" gradientTransform="translate(583.5 128) rotate(128.035) scale(580.22 348.408)">
<stop stop-color="#DCC795"/>
<stop offset="0.634631" stop-color="white"/>
<stop offset="0.995213" stop-color="#DCC795"/>
</radialGradient>
<radialGradient id="paint3_radial_24_6691" cx="0" cy="0" r="1" gradientUnits="userSpaceOnUse" gradientTransform="translate(583.5 128) rotate(128.035) scale(580.22 348.408)">
<stop stop-color="#DCC795"/>
<stop offset="0.634631" stop-color="white"/>
<stop offset="0.995213" stop-color="#DCC795"/>
</radialGradient>
<radialGradient id="paint4_radial_24_6691" cx="0" cy="0" r="1" gradientUnits="userSpaceOnUse" gradientTransform="translate(583.5 128) rotate(128.035) scale(580.22 348.408)">
<stop stop-color="#DCC795"/>
<stop offset="0.634631" stop-color="white"/>
<stop offset="0.995213" stop-color="#DCC795"/>
</radialGradient>
<radialGradient id="paint5_radial_24_6691" cx="0" cy="0" r="1" gradientUnits="userSpaceOnUse" gradientTransform="translate(583.5 128) rotate(128.035) scale(580.22 348.408)">
<stop stop-color="#DCC795"/>
<stop offset="0.634631" stop-color="white"/>
<stop offset="0.995213" stop-color="#DCC795"/>
</radialGradient>
<radialGradient id="paint6_radial_24_6691" cx="0" cy="0" r="1" gradientUnits="userSpaceOnUse" gradientTransform="translate(583.5 128) rotate(128.035) scale(580.22 348.408)">
<stop stop-color="#DCC795"/>
<stop offset="0.634631" stop-color="white"/>
<stop offset="0.995213" stop-color="#DCC795"/>
</radialGradient>
<radialGradient id="paint7_radial_24_6691" cx="0" cy="0" r="1" gradientUnits="userSpaceOnUse" gradientTransform="translate(583.5 128) rotate(128.035) scale(580.22 348.408)">
<stop stop-color="#DCC795"/>
<stop offset="0.634631" stop-color="white"/>
<stop offset="0.995213" stop-color="#DCC795"/>
</radialGradient>
<radialGradient id="paint8_radial_24_6691" cx="0" cy="0" r="1" gradientUnits="userSpaceOnUse" gradientTransform="translate(583.5 128) rotate(128.035) scale(580.22 348.408)">
<stop stop-color="#DCC795"/>
<stop offset="0.634631" stop-color="white"/>
<stop offset="0.995213" stop-color="#DCC795"/>
</radialGradient>
<radialGradient id="paint9_radial_24_6691" cx="0" cy="0" r="1" gradientUnits="userSpaceOnUse" gradientTransform="translate(583.5 128) rotate(128.035) scale(580.22 348.408)">
<stop stop-color="#DCC795"/>
<stop offset="0.634631" stop-color="white"/>
<stop offset="0.995213" stop-color="#DCC795"/>
</radialGradient>
<radialGradient id="paint10_radial_24_6691" cx="0" cy="0" r="1" gradientUnits="userSpaceOnUse" gradientTransform="translate(583.5 128) rotate(128.035) scale(580.22 348.408)">
<stop stop-color="#DCC795"/>
<stop offset="0.634631" stop-color="white"/>
<stop offset="0.995213" stop-color="#DCC795"/>
</radialGradient>
<radialGradient id="paint11_radial_24_6691" cx="0" cy="0" r="1" gradientUnits="userSpaceOnUse" gradientTransform="translate(583.5 128) rotate(128.035) scale(580.22 348.408)">
<stop stop-color="#DCC795"/>
<stop offset="0.634631" stop-color="white"/>
<stop offset="0.995213" stop-color="#DCC795"/>
</radialGradient>
<radialGradient id="paint12_radial_24_6691" cx="0" cy="0" r="1" gradientUnits="userSpaceOnUse" gradientTransform="translate(583.5 128) rotate(128.035) scale(580.22 348.408)">
<stop stop-color="#DCC795"/>
<stop offset="0.634631" stop-color="white"/>
<stop offset="0.995213" stop-color="#DCC795"/>
</radialGradient>
<radialGradient id="paint13_radial_24_6691" cx="0" cy="0" r="1" gradientUnits="userSpaceOnUse" gradientTransform="translate(583.5 128) rotate(128.035) scale(580.22 348.408)">
<stop stop-color="#DCC795"/>
<stop offset="0.634631" stop-color="white"/>
<stop offset="0.995213" stop-color="#DCC795"/>
</radialGradient>
<radialGradient id="paint14_radial_24_6691" cx="0" cy="0" r="1" gradientUnits="userSpaceOnUse" gradientTransform="translate(583.5 128) rotate(128.035) scale(580.22 348.408)">
<stop stop-color="#DCC795"/>
<stop offset="0.634631" stop-color="white"/>
<stop offset="0.995213" stop-color="#DCC795"/>
</radialGradient>
<radialGradient id="paint15_radial_24_6691" cx="0" cy="0" r="1" gradientUnits="userSpaceOnUse" gradientTransform="translate(583.5 128) rotate(128.035) scale(580.22 348.408)">
<stop stop-color="#DCC795"/>
<stop offset="0.634631" stop-color="white"/>
<stop offset="0.995213" stop-color="#DCC795"/>
</radialGradient>
</defs>
</svg>
